<svg width="478" height="464" viewBox="0 0 478 464" fill="none" xmlns="http://www.w3.org/2000/svg">
<g filter="url(#filter0_d_1_39)">
<ellipse cx="244" cy="223.838" rx="228" ry="220.838" fill="#3100A8"/>
</g>
<ellipse cx="245.193" cy="223.838" rx="212.482" ry="206.513" fill="white"/>
<ellipse cx="244" cy="222.644" rx="189.801" ry="183.832" fill="#75B4E7"/>
<ellipse cx="244.852" cy="222.947" rx="164.738" ry="159.395" fill="#3100A8"/>
<g filter="url(#filter1_d_1_39)">
<rect x="196" y="38" width="96" height="372.44" rx="2" fill="#0CE0BA"/>
<rect x="73.2985" y="125.597" width="343.791" height="66.8482" rx="4" fill="#0CE0BA"/>
</g>
<path fill-rule="evenodd" clip-rule="evenodd" d="M132.792 234.742C132.792 233.638 131.896 232.742 130.792 232.742H53.6189C52.5143 232.742 51.6189 233.638 51.6189 234.742V250.333C51.6189 251.437 52.5143 252.333 53.6189 252.333H111.952C113.057 252.333 113.952 253.228 113.952 254.333V381.151C113.952 382.255 114.848 383.151 115.952 383.151H130.792C131.896 383.151 132.792 382.255 132.792 381.151V234.742Z" fill="white"/>
<path fill-rule="evenodd" clip-rule="evenodd" d="M346.64 234.194C346.64 233.089 347.536 232.194 348.64 232.194L439.647 232.194C440.751 232.194 441.647 233.089 441.647 234.194V248.552C441.647 249.656 440.751 250.552 439.647 250.552L367.066 250.552C365.962 250.552 365.066 251.447 365.066 252.552L365.066 380.602C365.066 381.707 364.171 382.602 363.066 382.602H348.64C347.536 382.602 346.64 381.707 346.64 380.602L346.64 234.194Z" fill="white"/>
<g filter="url(#filter2_d_1_39)">
<mask id="mask0_1_39" style="mask-type:alpha" maskUnits="userSpaceOnUse" x="154" y="42" width="184" height="369">
<rect x="154.472" y="42.8115" width="182.691" height="367.665" fill="#D9D9D9"/>
</mask>
<g mask="url(#mask0_1_39)">
<path d="M179.592 110.18L176.166 105.612L172.741 102.187L175.024 96.4778V89.6268V88.485L168.174 83.9177L163.606 79.3505L159.039 75.9251L157.897 72.4996L160.181 69.0741L162.464 65.6487H164.748L169.315 66.7905L172.741 69.0741L178.45 72.4996L179.592 69.0741L181.875 65.6487H185.301H189.412L193.294 66.7905L197.861 70.216L200.144 69.0741L201.286 64.5069H204.712L208.137 65.6487L211.563 64.5069L217.272 62.2233L220.697 59.9396L221.839 54.2305L225.264 51.9469L228.69 49.6633L230.973 47.3796L233.257 49.6633L236.683 53.0887L241.25 56.5142L245.817 58.2725L250.384 58.7978L256.093 59.9396L258.377 58.2725H264.086L267.512 61.0814V66.7905L262.944 69.0741V74.7832L264.086 80.4923L267.512 83.9177L272.079 87.3432L278.93 89.6268L282.355 90.7686H285.781H290.348L292.632 93.0523L291.49 96.4777L285.781 99.9032L281.213 101.045V105.612L278.93 107.896L273.221 109.038L269.795 110.18L267.512 112.463L262.944 117.03V125.023L260.661 127.307H256.605L253.81 133.016H248.101L245.817 136.441L243.533 142.15L242.392 149.001L240.108 155.852L243.533 162.703L249.243 169.554L256.093 175.263L259.519 178.689L260.661 184.398V188.965L262.944 192.39L268.653 196.958L273.221 201.525L278.93 206.092L283.497 211.801L289.206 215.227L293.773 220.936L300.624 224.361L304.05 230.07L309.759 234.638L313.184 240.347L316.61 243.772V249.481L320.035 255.19V260.899L322.319 265.467L323.461 272.318L324.602 275.743L326.886 280.31L325.744 286.019L326.886 292.87V295.154L330.312 297.437V302.005L328.028 304.288L325.744 305.43V307.714L326.886 311.139L325.744 317.99V322.557V327.125L323.461 331.692L321.177 332.834V336.259L316.61 337.401L314.326 339.685L310.901 340.827L308.617 343.11L301.766 345.394L296.057 348.819L282.355 357.954L275.504 360.237L269.795 359.096H266.37L265.228 363.663V368.23L262.944 372.797L260.661 377.365L257.235 379.648L251.526 383.074L242.392 386.499L236.683 391.066L229.832 396.776L221.839 402.485L220.697 399.059L221.839 383.074L220.697 373.939L224.123 370.514L225.264 367.088L219.555 364.805L212.704 362.521L211.563 357.954L213.846 354.528H220.697V351.103H225.264L224.123 347.677L227.548 346.536H233.257L235.541 345.394H241.25L244.675 347.677L250.384 348.819L251.526 346.536L250.384 343.11L245.817 338.543L244.675 333.976L243.533 330.55L245.817 329.408L248.101 327.125L251.526 328.267L257.235 329.408V325.983L258.377 321.416L261.803 322.557L265.228 321.416L269.795 319.132L272.079 317.99L278.93 315.707L283.497 313.423L285.781 309.997V305.43L284.639 303.147L282.355 300.863L283.497 297.437L284.639 294.012L285.781 290.587V287.161L284.639 283.736L283.497 280.31L282.355 278.027L280.072 274.601V271.176V269.514L281.213 266.608L283.497 263.183V256.332V251.765L286.922 249.481V246.056V243.772L284.639 242.63L280.072 238.063L276.646 235.779L277.788 232.354L280.072 231.212L283.497 226.645H280.072L273.221 223.219V219.794L267.512 216.368H262.944L260.661 212.943V209.518V204.95H257.235V202.667L253.81 198.099L250.384 195.816L245.817 191.249L241.25 186.681L240.108 183.256L235.541 177.547L234.399 175.263L228.69 172.979L227.548 167.27V163.845L226.406 161.561H221.839L217.272 160.419L213.846 156.994L209.279 154.71L204.712 152.427L199.003 150.143V147.859L201.286 145.576L202.428 142.15L204.712 139.867H208.137H211.563H214.988L217.272 138.725L219.555 135.299L220.697 133.016V130.732V128.449L219.555 127.307L217.272 123.881H214.988L212.704 121.598H210.421V119.314H212.704L213.846 118.172L212.704 115.889L208.137 112.463L202.428 110.18H197.861L194.435 112.463L192.152 115.889L189.868 112.463H184.159L179.592 110.18Z" fill="#FFFF00" stroke="#FFFF00"/>
</g>
</g>
<defs>
<filter id="filter0_d_1_39" x="0" y="0" width="478" height="463.675" filterUnits="userSpaceOnUse" color-interpolation-filters="sRGB">
<feFlood flood-opacity="0" result="BackgroundImageFix"/>
<feColorMatrix in="SourceAlpha" type="matrix" values="0 0 0 0 0 0 0 0 0 0 0 0 0 0 0 0 0 0 127 0" result="hardAlpha"/>
<feOffset dx="-5" dy="8"/>
<feGaussianBlur stdDeviation="5.5"/>
<feComposite in2="hardAlpha" operator="out"/>
<feColorMatrix type="matrix" values="0 0 0 0 0 0 0 0 0 0 0 0 0 0 0 0 0 0 0.25 0"/>
<feBlend mode="normal" in2="BackgroundImageFix" result="effect1_dropShadow_1_39"/>
<feBlend mode="normal" in="SourceGraphic" in2="effect1_dropShadow_1_39" result="shape"/>
</filter>
<filter id="filter1_d_1_39" x="69.2985" y="38" width="351.791" height="380.44" filterUnits="userSpaceOnUse" color-interpolation-filters="sRGB">
<feFlood flood-opacity="0" result="BackgroundImageFix"/>
<feColorMatrix in="SourceAlpha" type="matrix" values="0 0 0 0 0 0 0 0 0 0 0 0 0 0 0 0 0 0 127 0" result="hardAlpha"/>
<feOffset dy="4"/>
<feGaussianBlur stdDeviation="2"/>
<feComposite in2="hardAlpha" operator="out"/>
<feColorMatrix type="matrix" values="0 0 0 0 0 0 0 0 0 0 0 0 0 0 0 0 0 0 0.25 0"/>
<feBlend mode="normal" in2="BackgroundImageFix" result="effect1_dropShadow_1_39"/>
<feBlend mode="normal" in="SourceGraphic" in2="effect1_dropShadow_1_39" result="shape"/>
</filter>
<filter id="filter2_d_1_39" x="151.346" y="46.6725" width="185.466" height="370.612" filterUnits="userSpaceOnUse" color-interpolation-filters="sRGB">
<feFlood flood-opacity="0" result="BackgroundImageFix"/>
<feColorMatrix in="SourceAlpha" type="matrix" values="0 0 0 0 0 0 0 0 0 0 0 0 0 0 0 0 0 0 127 0" result="hardAlpha"/>
<feOffset dy="8"/>
<feGaussianBlur stdDeviation="3"/>
<feComposite in2="hardAlpha" operator="out"/>
<feColorMatrix type="matrix" values="0 0 0 0 0 0 0 0 0 0 0 0 0 0 0 0 0 0 0.25 0"/>
<feBlend mode="normal" in2="BackgroundImageFix" result="effect1_dropShadow_1_39"/>
<feBlend mode="normal" in="SourceGraphic" in2="effect1_dropShadow_1_39" result="shape"/>
</filter>
</defs>
</svg>
