<svg width="256" height="256" viewBox="0 0 256 256" fill="none" xmlns="http://www.w3.org/2000/svg">
<circle cx="128" cy="128" r="128" fill="#3100A8"/>
<ellipse cx="128.67" cy="128" rx="119.288" ry="119.697" fill="white"/>
<ellipse cx="128" cy="127.308" rx="106.555" ry="106.551" fill="#75B4E7"/>
<ellipse cx="128.478" cy="127.484" rx="92.4844" ry="92.3871" fill="#3100A8"/>
<path d="M104.52 20.4282H152.475C153.824 20.4282 154.945 21.5618 154.945 22.994V70.2003H102.05V22.994C102.05 21.5618 103.171 20.4282 104.52 20.4282ZM102.05 71.2003H154.945V108.946H102.05V71.2003ZM155.945 108.946V71.2003H219.731C222.72 71.2003 225.17 73.7065 225.17 76.832V103.314C225.17 106.44 222.72 108.946 219.731 108.946H155.945ZM102.05 109.946H154.945V232.733C154.945 234.165 153.824 235.298 152.475 235.298H104.52C103.171 235.298 102.05 234.165 102.05 232.733V109.946ZM101.05 71.2003V108.946H38.6042C35.6151 108.946 33.165 106.44 33.165 103.314V76.832C33.165 73.7065 35.6151 71.2003 38.6042 71.2003H101.05Z" fill="#0CE0BA" stroke="#0CE0BA"/>
<path fill-rule="evenodd" clip-rule="evenodd" d="M65.5675 135.161C65.5675 134.057 64.6721 133.161 63.5675 133.161H21.9968C20.8923 133.161 19.9968 134.057 19.9968 135.161V142.516C19.9968 143.621 20.8923 144.516 21.9968 144.516H52.9907C54.0953 144.516 54.9907 145.412 54.9907 146.516V218.34C54.9907 219.444 55.8861 220.34 56.9907 220.34H63.5675C64.6721 220.34 65.5675 219.444 65.5675 218.34V135.161Z" fill="white"/>
<path fill-rule="evenodd" clip-rule="evenodd" d="M185.623 134.843C185.623 133.739 186.518 132.843 187.623 132.843H236.96C238.064 132.843 238.96 133.739 238.96 134.843V141.484C238.96 142.588 238.064 143.484 236.96 143.484H197.967C196.862 143.484 195.967 144.379 195.967 145.484L195.967 218.022C195.967 219.126 195.072 220.022 193.967 220.022H187.623C186.518 220.022 185.623 219.126 185.623 218.022L185.623 134.843Z" fill="white"/>
<path d="M91.841 65.1883L89.9179 62.5411L87.9949 60.5557L89.2769 57.2466V52.6139L85.4308 49.9667L82.8667 47.3195L80.3026 45.334L79.6616 43.3486L82.2257 39.3778H83.5077L86.0718 40.0395L87.9949 41.3632L91.2 43.3486L91.841 41.3632L93.123 39.3778H97.354L99.5332 40.0395L102.097 42.025L103.379 41.3632L104.02 38.7159H105.943L107.866 39.3778L109.79 38.7159L112.995 37.3923L114.918 36.0687L115.559 32.7597L119.405 30.1124L120.687 28.7888L123.892 32.0978L126.456 34.0833L129.02 35.1024L131.584 35.4069L134.789 36.0687L136.071 35.1024H139.276L141.199 36.7305V40.0395L138.635 41.3632V44.6722L139.276 47.9813L141.199 49.9667L143.764 51.9521L149.533 53.9375H154.02L155.302 55.2612L154.661 57.2466L151.456 59.232L148.892 59.8938V62.5411L147.61 63.8647L144.405 64.5265L142.482 65.1883L138.635 69.1592V73.7918L137.353 75.1155H135.077L133.507 78.4245H130.302L129.02 80.4099L127.738 83.719L127.097 87.6899L125.815 91.6607L127.738 95.6316L130.943 99.6024L134.789 102.911L136.712 104.897L137.353 108.206V110.853L138.635 112.839L141.841 115.486L144.405 118.133L147.61 120.78L150.174 124.089L153.379 126.075L155.943 129.384L159.789 131.369L161.712 134.678L164.917 137.326L166.84 140.635L168.763 142.62V145.929L170.686 149.238V152.547L171.968 155.194L172.609 159.165L173.25 161.151L174.533 163.798L173.892 167.107L174.533 171.078V172.401L176.456 173.725V176.372L175.174 177.696L173.892 178.358V179.681L174.533 181.667L173.892 185.638V190.932L172.609 193.579L171.327 194.241V196.227L168.763 196.888L167.481 198.212L165.558 198.874L164.276 200.198L160.43 201.521L157.225 203.507L149.533 208.801L145.687 210.125L142.482 209.463H140.558L139.917 212.11V214.757L137.353 220.052L135.43 221.375L132.225 223.361L127.097 225.346L123.892 227.994L120.046 231.303L115.559 234.612L114.918 232.626L115.559 223.361L114.918 218.066L116.841 216.081L117.482 214.096L114.277 212.772L110.431 211.448L109.79 208.801L111.072 206.816H114.918V204.83H117.482L116.841 202.845L118.764 202.183H121.969L123.251 201.521H126.456L128.379 202.845L131.584 203.507L132.225 202.183L131.584 200.198L129.02 197.55L128.379 194.903L127.738 192.918L129.02 192.256L130.302 190.932L132.225 191.594L135.43 192.256V190.27L136.071 187.623L137.994 188.285L139.917 187.623L143.764 185.638L147.61 184.314L150.174 182.99L151.456 181.005V178.358L150.815 177.034L149.533 175.711L151.456 169.754V167.769L150.174 163.798L149.533 162.474L148.251 160.489V157.541L148.892 155.856L150.174 153.871V147.253L152.097 145.929V142.62L150.815 141.958L148.251 139.311L146.328 137.987L146.969 136.002L148.251 135.34L150.174 132.693H148.251L144.405 130.707V128.722L141.199 126.737H138.635L137.353 124.751V120.119H135.43V118.795L133.507 116.148L131.584 114.824L126.456 109.53L125.815 107.544L123.251 104.235L122.61 102.911L119.405 101.588L118.764 98.2788V96.2934L118.123 94.9698H115.559L112.995 94.308L111.072 92.3225L105.943 89.6753L102.738 88.3517V87.028L104.02 85.7044L104.661 83.719L105.943 82.3954H111.713L112.995 81.7336L114.277 79.7481L114.918 78.4245V75.7773L114.277 75.1155L112.995 73.13H111.713L110.431 71.8064H109.149V70.4828H110.431L111.072 69.821L110.431 68.4974L107.866 66.5119L104.661 65.1883H102.097L100.174 66.5119L98.8922 68.4974L97.6102 66.5119H94.4051L91.841 65.1883Z" fill="#ABABA5" fill-opacity="0.78"/>
<path d="M77.7383 26.1411H180.301V239.244H77.7383V26.1411Z" stroke="#777771" stroke-opacity="0.79"/>
<path d="M91.841 65.1883L89.9179 62.5411L87.9949 60.5557L89.2769 57.2466V52.6139L85.4308 49.9667L82.8667 47.3195L80.3026 45.334L79.6616 43.3486L82.2257 39.3778H83.5077L86.0718 40.0395L87.9949 41.3632L91.2 43.3486L91.841 41.3632L93.123 39.3778H97.354L99.5332 40.0395L102.097 42.025L103.379 41.3632L104.02 38.7159H105.943L107.866 39.3778L109.79 38.7159L112.995 37.3923L114.918 36.0687L115.559 32.7597L119.405 30.1124L120.687 28.7888L123.892 32.0978L126.456 34.0833L129.02 35.1024L131.584 35.4069L134.789 36.0687L136.071 35.1024H139.276L141.199 36.7305V40.0395L138.635 41.3632V44.6722L139.276 47.9813L141.199 49.9667L143.764 51.9521L149.533 53.9375H154.02L155.302 55.2612L154.661 57.2466L151.456 59.232L148.892 59.8938V62.5411L147.61 63.8647L144.405 64.5265L142.482 65.1883L138.635 69.1592V73.7918L137.353 75.1155H135.077L133.507 78.4245H130.302L129.02 80.4099L127.738 83.719L127.097 87.6899L125.815 91.6607L127.738 95.6316L130.943 99.6024L134.789 102.911L136.712 104.897L137.353 108.206V110.853L138.635 112.839L141.841 115.486L144.405 118.133L147.61 120.78L150.174 124.089L153.379 126.075L155.943 129.384L159.789 131.369L161.712 134.678L164.917 137.326L166.84 140.635L168.763 142.62V145.929L170.686 149.238V152.547L171.968 155.194L172.609 159.165L173.25 161.151L174.533 163.798L173.892 167.107L174.533 171.078V172.401L176.456 173.725V176.372L175.174 177.696L173.892 178.358V179.681L174.533 181.667L173.892 185.638V190.932L172.609 193.579L171.327 194.241V196.227L168.763 196.888L167.481 198.212L165.558 198.874L164.276 200.198L160.43 201.521L157.225 203.507L149.533 208.801L145.687 210.125L142.482 209.463H140.558L139.917 212.11V214.757L137.353 220.052L135.43 221.375L132.225 223.361L127.097 225.346L123.892 227.994L120.046 231.303L115.559 234.612L114.918 232.626L115.559 223.361L114.918 218.066L116.841 216.081L117.482 214.096L114.277 212.772L110.431 211.448L109.79 208.801L111.072 206.816H114.918V204.83H117.482L116.841 202.845L118.764 202.183H121.969L123.251 201.521H126.456L128.379 202.845L131.584 203.507L132.225 202.183L131.584 200.198L129.02 197.55L128.379 194.903L127.738 192.918L129.02 192.256L130.302 190.932L132.225 191.594L135.43 192.256V190.27L136.071 187.623L137.994 188.285L139.917 187.623L143.764 185.638L147.61 184.314L150.174 182.99L151.456 181.005V178.358L150.815 177.034L149.533 175.711L151.456 169.754V167.769L150.174 163.798L149.533 162.474L148.251 160.489V157.541L148.892 155.856L150.174 153.871V147.253L152.097 145.929V142.62L150.815 141.958L148.251 139.311L146.328 137.987L146.969 136.002L148.251 135.34L150.174 132.693H148.251L144.405 130.707V128.722L141.199 126.737H138.635L137.353 124.751V120.119H135.43V118.795L133.507 116.148L131.584 114.824L126.456 109.53L125.815 107.544L123.251 104.235L122.61 102.911L119.405 101.588L118.764 98.2788V96.2934L118.123 94.9698H115.559L112.995 94.308L111.072 92.3225L105.943 89.6753L102.738 88.3517V87.028L104.02 85.7044L104.661 83.719L105.943 82.3954H111.713L112.995 81.7336L114.277 79.7481L114.918 78.4245V75.7773L114.277 75.1155L112.995 73.13H111.713L110.431 71.8064H109.149V70.4828H110.431L111.072 69.821L110.431 68.4974L107.866 66.5119L104.661 65.1883H102.097L100.174 66.5119L98.8922 68.4974L97.6102 66.5119H94.4051L91.841 65.1883Z" stroke="#777771" stroke-opacity="0.79"/>
<path d="M91.841 62.1224L89.9179 59.4752L87.9949 57.4897L89.2769 54.1807V49.548L85.4308 46.9008L82.8667 44.2536L80.3026 42.2681L79.6616 40.2827L82.2257 36.3118H83.5077L86.0718 36.9736L87.9949 38.2972L91.2 40.2827L91.841 38.2972L93.123 36.3118H97.354L99.5332 36.9736L102.097 38.9591L103.379 38.2972L104.02 35.65H105.943L107.866 36.3118L109.79 35.65L112.995 34.3264L114.918 33.0028L115.559 29.6937L119.405 27.0465L120.687 25.7229L123.892 29.0319L126.456 31.0174L129.02 32.0365L131.584 32.341L134.789 33.0028L136.071 32.0365H139.276L141.199 33.6646V36.9736L138.635 38.2972V41.6063L139.276 44.9153L141.199 46.9008L143.764 48.8862L149.533 50.8716H154.02L155.302 52.1952L154.661 54.1807L151.456 56.1661L148.892 56.8279V59.4752L147.61 60.7988L144.405 61.4606L142.482 62.1224L138.635 66.0933V70.7259L137.353 72.0495H135.077L133.507 75.3586H130.302L129.02 77.344L127.738 80.6531L127.097 84.6239L125.815 88.5948L127.738 92.5657L130.943 96.5365L134.789 99.8456L136.712 101.831L137.353 105.14V107.787L138.635 109.773L141.841 112.42L144.405 115.067L147.61 117.714L150.174 121.023L153.379 123.009L155.943 126.318L159.789 128.303L161.712 131.612L164.917 134.26L166.84 137.569L168.763 139.554V142.863L170.686 146.172V149.481L171.968 152.129L172.609 156.099L173.25 158.085L174.533 160.732L173.892 164.041L174.533 168.012V169.336L176.456 170.659V173.306L175.174 174.63L173.892 175.292V176.615L174.533 178.601L173.892 182.572V187.866L172.609 190.513L171.327 191.175V193.161L168.763 193.823L167.481 195.146L165.558 195.808L164.276 197.132L160.43 198.455L157.225 200.441L149.533 205.735L145.687 207.059L142.482 206.397H140.558L139.917 209.044V211.691L137.353 216.986L135.43 218.31L132.225 220.295L127.097 222.28L123.892 224.928L120.046 228.237L115.559 231.546L114.918 229.56L115.559 220.295L114.918 215L116.841 213.015L117.482 211.03L114.277 209.706L110.431 208.382L109.79 205.735L111.072 203.75H114.918V201.764H117.482L116.841 199.779L118.764 199.117H121.969L123.251 198.455H126.456L128.379 199.779L131.584 200.441L132.225 199.117L131.584 197.132L129.02 194.484L128.379 191.837L127.738 189.852L129.02 189.19L130.302 187.866L132.225 188.528L135.43 189.19V187.204L136.071 184.557L137.994 185.219L139.917 184.557L143.764 182.572L147.61 181.248L150.174 179.925L151.456 177.939V175.292L150.815 173.968L149.533 172.645L151.456 166.688V164.703L150.174 160.732L149.533 159.408L148.251 157.423V154.475L148.892 152.79L150.174 150.805V144.187L152.097 142.863V139.554L150.815 138.892L148.251 136.245L146.328 134.921L146.969 132.936L148.251 132.274L150.174 129.627H148.251L144.405 127.642V125.656L141.199 123.671H138.635L137.353 121.685V117.053H135.43V115.729L133.507 113.082L131.584 111.758L126.456 106.464L125.815 104.478L123.251 101.169L122.61 99.8456L119.405 98.5219L118.764 95.2129V93.2275L118.123 91.9038H115.559L112.995 91.242L111.072 89.2566L105.943 86.6094L102.738 85.2857V83.9621L104.02 82.6385L104.661 80.6531L105.943 79.3295H111.713L112.995 78.6676L114.277 76.6822L114.918 75.3586V72.7114L114.277 72.0495L112.995 70.0641H111.713L110.431 68.7405H109.149V67.4169H110.431L111.072 66.7551L110.431 65.4314L107.866 63.446L104.661 62.1224H102.097L100.174 63.446L98.8922 65.4314L97.6102 63.446H94.4051L91.841 62.1224Z" fill="#FFFF00"/>
<path d="M77.7383 23.0752H180.301V236.178H77.7383V23.0752Z" stroke="#FFFF00"/>
<path d="M91.841 62.1224L89.9179 59.4752L87.9949 57.4897L89.2769 54.1807V49.548L85.4308 46.9008L82.8667 44.2536L80.3026 42.2681L79.6616 40.2827L82.2257 36.3118H83.5077L86.0718 36.9736L87.9949 38.2972L91.2 40.2827L91.841 38.2972L93.123 36.3118H97.354L99.5332 36.9736L102.097 38.9591L103.379 38.2972L104.02 35.65H105.943L107.866 36.3118L109.79 35.65L112.995 34.3264L114.918 33.0028L115.559 29.6937L119.405 27.0465L120.687 25.7229L123.892 29.0319L126.456 31.0174L129.02 32.0365L131.584 32.341L134.789 33.0028L136.071 32.0365H139.276L141.199 33.6646V36.9736L138.635 38.2972V41.6063L139.276 44.9153L141.199 46.9008L143.764 48.8862L149.533 50.8716H154.02L155.302 52.1952L154.661 54.1807L151.456 56.1661L148.892 56.8279V59.4752L147.61 60.7988L144.405 61.4606L142.482 62.1224L138.635 66.0933V70.7259L137.353 72.0495H135.077L133.507 75.3586H130.302L129.02 77.344L127.738 80.6531L127.097 84.6239L125.815 88.5948L127.738 92.5657L130.943 96.5365L134.789 99.8456L136.712 101.831L137.353 105.14V107.787L138.635 109.773L141.841 112.42L144.405 115.067L147.61 117.714L150.174 121.023L153.379 123.009L155.943 126.318L159.789 128.303L161.712 131.612L164.917 134.26L166.84 137.569L168.763 139.554V142.863L170.686 146.172V149.481L171.968 152.129L172.609 156.099L173.25 158.085L174.533 160.732L173.892 164.041L174.533 168.012V169.336L176.456 170.659V173.306L175.174 174.63L173.892 175.292V176.615L174.533 178.601L173.892 182.572V187.866L172.609 190.513L171.327 191.175V193.161L168.763 193.823L167.481 195.146L165.558 195.808L164.276 197.132L160.43 198.455L157.225 200.441L149.533 205.735L145.687 207.059L142.482 206.397H140.558L139.917 209.044V211.691L137.353 216.986L135.43 218.31L132.225 220.295L127.097 222.28L123.892 224.928L120.046 228.237L115.559 231.546L114.918 229.56L115.559 220.295L114.918 215L116.841 213.015L117.482 211.03L114.277 209.706L110.431 208.382L109.79 205.735L111.072 203.75H114.918V201.764H117.482L116.841 199.779L118.764 199.117H121.969L123.251 198.455H126.456L128.379 199.779L131.584 200.441L132.225 199.117L131.584 197.132L129.02 194.484L128.379 191.837L127.738 189.852L129.02 189.19L130.302 187.866L132.225 188.528L135.43 189.19V187.204L136.071 184.557L137.994 185.219L139.917 184.557L143.764 182.572L147.61 181.248L150.174 179.925L151.456 177.939V175.292L150.815 173.968L149.533 172.645L151.456 166.688V164.703L150.174 160.732L149.533 159.408L148.251 157.423V154.475L148.892 152.79L150.174 150.805V144.187L152.097 142.863V139.554L150.815 138.892L148.251 136.245L146.328 134.921L146.969 132.936L148.251 132.274L150.174 129.627H148.251L144.405 127.642V125.656L141.199 123.671H138.635L137.353 121.685V117.053H135.43V115.729L133.507 113.082L131.584 111.758L126.456 106.464L125.815 104.478L123.251 101.169L122.61 99.8456L119.405 98.5219L118.764 95.2129V93.2275L118.123 91.9038H115.559L112.995 91.242L111.072 89.2566L105.943 86.6094L102.738 85.2857V83.9621L104.02 82.6385L104.661 80.6531L105.943 79.3295H111.713L112.995 78.6676L114.277 76.6822L114.918 75.3586V72.7114L114.277 72.0495L112.995 70.0641H111.713L110.431 68.7405H109.149V67.4169H110.431L111.072 66.7551L110.431 65.4314L107.866 63.446L104.661 62.1224H102.097L100.174 63.446L98.8922 65.4314L97.6102 63.446H94.4051L91.841 62.1224Z" stroke="#FFFF00"/>
</svg>
