<svg width="257" height="248" viewBox="0 0 257 248" fill="none" xmlns="http://www.w3.org/2000/svg">
<ellipse cx="128.022" cy="124" rx="128.022" ry="124" fill="#3100A9"/>
<ellipse cx="128.692" cy="124" rx="119.308" ry="115.957" fill="white"/>
<ellipse cx="128.022" cy="123.33" rx="106.573" ry="103.222" fill="#4094D8"/>
<ellipse cx="128.5" cy="123.5" rx="92.5" ry="89.5" fill="#3100A9"/>
<rect x="99.2002" y="18.7676" width="58.9838" height="209.124" rx="2" fill="#19F6DB"/>
<rect x="32.173" y="64.3459" width="193.038" height="37.5351" rx="4" fill="#19F6DB"/>
<path fill-rule="evenodd" clip-rule="evenodd" d="M65.5784 131C65.5784 129.895 64.6829 129 63.5784 129H22C20.8954 129 20 129.895 20 131V138C20 139.105 20.8954 140 22 140H53C54.1046 140 55 140.895 55 142V211.454C55 212.559 55.8954 213.454 57 213.454H63.5784C64.6829 213.454 65.5784 212.559 65.5784 211.454V131Z" fill="white"/>
<path fill-rule="evenodd" clip-rule="evenodd" d="M185.654 130.692C185.654 129.587 186.549 128.692 187.654 128.692H237C238.105 128.692 239 129.587 239 130.692V137C239 138.105 238.105 139 237 139H198C196.895 139 196 139.895 196 141L196 211.146C196 212.251 195.105 213.146 194 213.146H187.654C186.549 213.146 185.654 212.251 185.654 211.146L185.654 130.692Z" fill="white"/>
<mask id="mask0_1_39" style="mask-type:alpha" maskUnits="userSpaceOnUse" x="77" y="20" width="104" height="207">
<rect x="77.7515" y="20.1081" width="102.58" height="206.443" fill="#D9D9D9"/>
</mask>
<g mask="url(#mask0_1_39)">
<path d="M91.8565 57.9351L89.9331 55.3706L88.0097 53.4472L89.292 50.2416V46.3948V45.7537L85.4452 43.1892L82.8807 40.6247L80.3162 38.7013L79.675 36.7779L80.9573 34.8545L82.2396 32.9311H83.5218L86.0863 33.5723L88.0097 34.8545L91.2154 36.7779L91.8565 34.8545L93.1387 32.9311H95.0621H97.3704L99.55 33.5723L102.115 35.4957L103.397 34.8545L104.038 32.29H105.961L107.885 32.9311L109.808 32.29L113.014 31.0078L114.937 29.7255L115.578 26.5199L117.502 25.2376L119.425 23.9554L120.707 22.6731L121.99 23.9554L123.913 25.8787L126.477 27.8021L129.042 28.7894L131.606 29.0844L134.812 29.7255L136.094 28.7894H139.3L141.223 30.3666V33.5723L138.659 34.8545V38.0602L139.3 41.2658L141.223 43.1892L143.788 45.1126L147.635 46.3948L149.558 47.0359H151.481H154.046L155.328 48.3182L154.687 50.2416L151.481 52.165L148.917 52.8061V55.3706L147.635 56.6529L144.429 57.294L142.506 57.9351L141.223 59.2174L138.659 61.7819V66.2698L137.377 67.552H135.1L133.53 70.7577H130.324L129.042 72.6811L127.76 75.8867L127.119 79.7335L125.836 83.5803L127.76 87.427L130.965 91.2738L134.812 94.4794L136.735 96.4028L137.377 99.6085V102.173L138.659 104.096L141.864 106.661L144.429 109.225L147.635 111.79L150.199 114.996L153.405 116.919L155.969 120.125L159.816 122.048L161.739 125.254L164.945 127.818L166.868 131.024L168.792 132.947V136.153L170.715 139.358V142.564L171.997 145.129L172.639 148.975L173.28 150.899L174.562 153.463L173.921 156.669L174.562 160.516V161.798L176.485 163.08V165.645L175.203 166.927L173.921 167.568V168.85L174.562 170.774L173.921 174.62V177.185V179.749L172.639 182.314L171.356 182.955V184.879L168.792 185.52L167.51 186.802L165.586 187.443L164.304 188.725L160.457 190.008L157.252 191.931L149.558 197.06L145.711 198.342L142.506 197.701H140.582L139.941 200.266V202.83L138.659 205.395L137.377 207.959L135.453 209.241L132.248 211.165L127.119 213.088L123.913 215.653L120.066 218.858L115.578 222.064L114.937 220.141L115.578 211.165L114.937 206.036L116.86 204.112L117.502 202.189L114.296 200.907L110.449 199.624L109.808 197.06L111.09 195.137H114.937V193.213H117.502L116.86 191.29L118.784 190.649H121.99L123.272 190.008H126.477L128.401 191.29L131.606 191.931L132.248 190.649L131.606 188.725L129.042 186.161L128.401 183.596L127.76 181.673L129.042 181.032L130.324 179.749L132.248 180.391L135.453 181.032V179.108L136.094 176.544L138.018 177.185L139.941 176.544L142.506 175.262L143.788 174.62L147.635 173.338L150.199 172.056L151.481 170.133V167.568L150.84 166.286L149.558 165.004L150.199 163.08L150.84 161.157L151.481 159.233V157.31L150.84 155.387L150.199 153.463L149.558 152.181L148.276 150.258V148.334V147.401L148.917 145.77L150.199 143.846V140V137.435L152.123 136.153V134.229V132.947L150.84 132.306L148.276 129.741L146.352 128.459L146.993 126.536L148.276 125.895L150.199 123.33H148.276L144.429 121.407V119.483L141.223 117.56H138.659L137.377 115.637V113.713V111.149H135.453V109.867L133.53 107.302L131.606 106.02L129.042 103.455L126.477 100.891L125.836 98.9673L123.272 95.7617L122.631 94.4794L119.425 93.1972L118.784 89.9915V88.0682L118.143 86.7859H115.578L113.014 86.1448L111.09 84.2214L108.526 82.9391L105.961 81.6569L102.756 80.3746V79.0924L104.038 77.8101L104.679 75.8867L105.961 74.6045H107.885H109.808H111.731L113.014 73.9633L114.296 72.04L114.937 70.7577V69.4754V68.1932L114.296 67.552L113.014 65.6287H111.731L110.449 64.3464H109.167V63.0642H110.449L111.09 62.423L110.449 61.1408L107.885 59.2174L104.679 57.9351H102.115L100.191 59.2174L98.9089 61.1408L97.6266 59.2174H94.421L91.8565 57.9351Z" fill="#FFFF00" stroke="#FFFF00"/>
</g>
</svg>
