<svg width="256" height="256" viewBox="0 0 256 256" fill="none" xmlns="http://www.w3.org/2000/svg">
<g clip-path="url(#clip0_6_28)">
<path d="M0 128V256H128H256V128V0H128H0V128Z" fill="#14BF96"/>
<path d="M181.504 57C154.873 57 134.975 78.9745 134.975 105.925V107.058H129.629V105.925C129.629 78.9745 109.83 57.0985 83.0007 57C83.0007 58.6752 83.0007 60.3996 83.0007 61.927C82.8931 82.316 95.5244 100.625 114.681 107.847C120.373 109.924 126.388 110.992 132.451 111C138.562 110.992 144.625 109.925 150.369 107.847C169.496 100.598 182.1 82.2992 181.999 61.927C181.751 60.3504 181.652 58.6752 181.504 57Z" fill="white"/>
<path d="M132 56C143.598 56 153 46.598 153 35C153 23.402 143.598 14 132 14C120.402 14 111 23.402 111 35C111 46.598 120.402 56 132 56Z" fill="white"/>
<path fill-rule="evenodd" clip-rule="evenodd" d="M21.9813 115C20.5591 115 19.5913 116.443 20.1307 117.759L54.2354 200.964C55.2337 203.399 57.6248 204.971 60.256 204.922C62.7864 204.873 65.0487 203.333 66.022 200.997L100.643 117.768C101.191 116.451 100.223 115 98.7967 115H89.314C88.5061 115 87.7776 115.486 87.4674 116.232L62.0429 177.358C61.3577 179.005 59.0223 178.999 58.3457 177.349L33.2975 116.241C32.9897 115.49 32.2585 115 31.4469 115H21.9813Z" fill="white"/>
<path fill-rule="evenodd" clip-rule="evenodd" d="M232 111C233.657 111 235 112.343 235 114V177.919C235 196.389 223.958 205.088 208.366 205.088C196.235 205.088 188.457 199.595 183.755 192.44L183.439 191.949L183.133 191.454V191.454C182.455 190.335 182.863 188.9 183.978 188.216L193.274 182.511C193.549 182.343 193.908 182.437 194.069 182.717V182.717L194.363 183.222C194.707 183.805 195.06 184.368 195.422 184.908L195.734 185.365C195.787 185.441 195.84 185.515 195.893 185.59L196.214 186.029C199.019 189.786 202.477 192.173 207.697 192.173C215.46 192.173 220.545 188.492 220.545 177.718V114C220.545 112.343 221.889 111 223.545 111H232Z" fill="white"/>
<path fill-rule="evenodd" clip-rule="evenodd" d="M155.538 150.6C150.955 147.567 144.914 145 138.039 145C114.811 145 97.1042 164.6 97 189.916C97.1042 215.232 114.811 234.832 138.039 234.832C144.81 234.832 150.955 232.266 155.538 229.232C160.44 225.882 164.282 222.68 167.592 218.147C169.088 216.097 168.483 213.271 166.45 211.753L156.746 204.507C156.641 204.429 156.536 204.444 156.468 204.555V204.555C155.514 206.091 148.532 217.332 137.518 217.332C123.561 217.332 114.291 205.199 114.291 190.033C114.291 174.866 123.457 162.733 137.518 162.733C144.594 162.733 150.043 167.29 153.291 170.973C155.293 173.243 158.826 173.935 161.235 172.102L166.508 168.087C168.513 166.561 169.099 163.756 167.622 161.715C164.305 157.134 160.455 153.867 155.538 150.6Z" fill="white"/>
</g>
<defs>
<clipPath id="clip0_6_28">
<rect width="256" height="256" rx="28" fill="white"/>
</clipPath>
</defs>
</svg>
