<svg width="128" height="128" viewBox="0 0 128 128" fill="none" xmlns="http://www.w3.org/2000/svg">
<circle cx="64" cy="64" r="64" fill="#3100A8"/>
<ellipse cx="64.3351" cy="64" rx="59.644" ry="59.8486" fill="white"/>
<ellipse cx="64.0001" cy="63.654" rx="53.2775" ry="53.2757" fill="#75B4E7"/>
<ellipse cx="64.239" cy="63.7419" rx="46.2422" ry="46.1935" fill="#3100A8"/>
<path d="M50.7751 11.497C50.7751 10.6504 51.4398 9.96408 52.2599 9.96408H76.2377C77.0577 9.96408 77.7225 10.6504 77.7225 11.497V116.366C77.7225 117.213 77.0577 117.899 76.2377 117.899H52.2599C51.4398 117.899 50.7751 117.213 50.7751 116.366V11.497Z" fill="#37E9BE"/>
<path d="M16.3325 38.416C16.3325 36.7228 17.662 35.3501 19.3021 35.3501H109.866C111.506 35.3501 112.835 36.7228 112.835 38.416V51.6572C112.835 53.3505 111.506 54.7231 109.866 54.7231H19.3021C17.662 54.7231 16.3325 53.3505 16.3325 51.6572V38.416Z" fill="#37E9BE"/>
<path fill-rule="evenodd" clip-rule="evenodd" d="M32.7838 68.5806C32.7838 67.4761 31.8883 66.5806 30.7838 66.5806H11.9984C10.8938 66.5806 9.99841 67.4761 9.99841 68.5806V70.2581C9.99841 71.3627 10.8938 72.2581 11.9984 72.2581H25.4953C26.5999 72.2581 27.4953 73.1535 27.4953 74.2581V108.17C27.4953 109.274 28.3908 110.17 29.4953 110.17H30.7838C31.8883 110.17 32.7838 109.274 32.7838 108.17V68.5806Z" fill="white"/>
<path fill-rule="evenodd" clip-rule="evenodd" d="M92.8113 68.4216C92.8113 67.317 93.7068 66.4216 94.8113 66.4216H117.48C118.584 66.4216 119.48 67.317 119.48 68.4216V69.7419C119.48 70.8465 118.584 71.7419 117.48 71.7419H99.9835C98.8789 71.7419 97.9835 72.6374 97.9835 73.7419L97.9835 108.011C97.9835 109.115 97.088 110.011 95.9835 110.011H94.8113C93.7068 110.011 92.8113 109.115 92.8113 108.011L92.8113 68.4216Z" fill="white"/>
<path d="M46.0257 32.6518L45.0642 31.3282L44.1027 30.3355L44.7437 28.681V26.3646L42.8206 25.041L41.5386 23.7174L40.2565 22.7247L39.936 21.732L41.2181 19.7465H41.8591L43.1411 20.0774L44.1027 20.7392L45.7052 21.732L46.0257 20.7392L46.6667 19.7465H48.7822L49.8718 20.0774L51.1539 21.0701L51.7949 20.7392L52.1154 19.4156H53.0769L54.0385 19.7465L55 19.4156L56.6025 18.7538L57.5641 18.092L57.8846 16.4375L59.8076 15.1139L60.4487 14.452L62.0512 16.1066L63.3332 17.0993L64.6153 17.6089L65.8973 17.7611L67.4999 18.092L68.1409 17.6089H69.7434L70.705 18.4229V20.0774L69.4229 20.7392V22.3938L69.7434 24.0483L70.705 25.041L71.987 26.0337L74.8716 27.0264H77.1152L77.7562 27.6882L77.4357 28.6809L75.8331 29.6737L74.5511 30.0046V31.3282L73.9101 31.99L72.3075 32.3209L71.346 32.6518L69.4229 34.6372V36.9536L68.7819 37.6154H67.6436L66.8589 39.2699H65.2563L64.6153 40.2626L63.9743 41.9171L63.6538 43.9026L63.0127 45.888L63.9743 47.8734L65.5768 49.8589L67.4999 51.5134L68.4614 52.5061L68.7819 54.1606V55.4842L69.4229 56.477L71.0255 57.8006L72.3075 59.1242L73.9101 60.4478L75.1921 62.1023L76.7947 63.0951L78.0767 64.7496L79.9998 65.7423L80.9613 67.3968L82.5638 68.7204L83.5254 70.375L84.4869 71.3677V73.0222L85.4484 74.6767V76.3312L86.0894 77.6549L86.41 79.6403L86.7305 80.633L87.3715 81.9566L87.051 83.6112L87.3715 85.5966V86.2584L88.333 86.9202V88.2438L87.692 88.9056L87.051 89.2365V89.8984L87.3715 90.8911L87.051 92.8765V95.5237L86.41 96.8474L85.7689 97.1783V98.171L84.4869 98.5019L83.8459 99.1637L82.8843 99.4946L82.2433 100.156L80.3203 100.818L78.7177 101.811L74.8716 104.458L72.9485 105.12L71.346 104.789H70.3845L70.064 106.113V107.436L68.7819 110.084L67.8204 110.745L66.2178 111.738L63.6538 112.731L62.0512 114.054L60.1281 115.709L57.8846 117.363L57.5641 116.371L57.8846 111.738L57.5641 109.091L58.5256 108.098L58.8461 107.105L57.2436 106.444L55.3205 105.782L55 104.458L55.641 103.465H57.5641V102.473H58.8461L58.5256 101.48L59.4871 101.149H61.0897L61.7307 100.818H63.3332L64.2948 101.48L65.8973 101.811L66.2178 101.149L65.8973 100.156L64.6153 98.8328L64.2948 97.5092L63.9743 96.5164L64.6153 96.1855L65.2563 95.5237L66.2178 95.8546L67.8204 96.1855V95.1928L68.1409 93.8692L69.1024 94.2001L70.064 93.8692L71.987 92.8765L73.9101 92.2147L75.1921 91.5529L75.8331 90.5602V89.2365L75.5126 88.5747L74.8716 87.9129L75.8331 84.9348V83.9421L75.1921 81.9566L74.8716 81.2948L74.2306 80.3021V78.828L74.5511 77.9858L75.1921 76.9931V73.684L76.1536 73.0222V71.3677L75.5126 71.0368L74.2306 69.7131L73.2691 69.0513L73.5896 68.0586L74.2306 67.7277L75.1921 66.4041H74.2306L72.3075 65.4114V64.4187L70.705 63.426H69.4229L68.7819 62.4332V60.1169H67.8204V59.4551L66.8589 58.1315L65.8973 57.4697L63.3332 54.8224L63.0127 53.8297L61.7307 52.1752L61.4102 51.5134L59.8076 50.8516L59.4871 49.1971V48.2043L59.1666 47.5425H57.8846L56.6025 47.2116L55.641 46.2189L53.0769 44.8953L51.4744 44.2335V43.5717L52.1154 42.9099L52.4359 41.9171L53.0769 41.2553H55.9615L56.6025 40.9244L57.2436 39.9317L57.5641 39.2699V37.9463L57.2436 37.6154L56.6025 36.6227H55.9615L55.3205 35.9609H54.6795V35.299H55.3205L55.641 34.9681L55.3205 34.3063L54.0385 33.3136L52.4359 32.6518H51.1539L50.1923 33.3136L49.5513 34.3063L48.9103 33.3136H47.3078L46.0257 32.6518Z" fill="#ABABA5" fill-opacity="0.78"/>
<path d="M45.9205 31.0612L44.959 29.7376L43.9974 28.7449L44.6384 27.0903V24.774L42.7154 23.4504L41.4333 22.1268L40.1513 21.1341L39.8308 20.1413L41.1128 18.1559H41.7539L43.0359 18.4868L43.9974 19.1486L45.6 20.1413L45.9205 19.1486L46.5615 18.1559H48.677L49.7666 18.4868L51.0486 19.4795L51.6897 19.1486L52.0102 17.825H52.9717L53.9332 18.1559L54.8948 17.825L56.4973 17.1632L57.4588 16.5014L57.7794 14.8469L59.7024 13.5232L60.3434 12.8614L61.946 14.516L63.228 15.5087L64.5101 16.0183L65.7921 16.1705L67.3946 16.5014L68.0357 16.0183H69.6382L70.5997 16.8323V18.4868L69.3177 19.1486V20.8031L69.6382 22.4577L70.5997 23.4504L71.8818 24.4431L74.7664 25.4358H77.0099L77.651 26.0976L77.3305 27.0903L75.7279 28.0831L74.4459 28.414V29.7376L73.8048 30.3994L72.2023 30.7303L71.2408 31.0612L69.3177 33.0466V35.363L68.6767 36.0248H67.5383L66.7536 37.6793H65.1511L64.5101 38.672L63.869 40.3265L63.5485 42.312L62.9075 44.2974L63.869 46.2828L65.4716 48.2683L67.3946 49.9228L68.3562 50.9155L68.6767 52.57V53.8936L69.3177 54.8864L70.9203 56.21L72.2023 57.5336L73.8048 58.8572L75.0869 60.5117L76.6894 61.5044L77.9715 63.159L79.8945 64.1517L80.8561 65.8062L82.4586 67.1298L83.4201 68.7844L84.3817 69.7771V71.4316L85.3432 73.0861V74.7406L85.9842 76.0643L86.3047 78.0497L86.6252 79.0424L87.2663 80.366L86.9458 82.0205L87.2663 84.006V84.6678L88.2278 85.3296V86.6532L87.5868 87.315L86.9458 87.6459V88.3077L87.2663 89.3005L86.9458 91.2859V93.9331L86.3047 95.2567L85.6637 95.5877V96.5804L84.3817 96.9113L83.7407 97.5731L82.7791 97.904L82.1381 98.5658L80.215 99.2276L78.6125 100.22L74.7664 102.868L72.8433 103.529L71.2408 103.198H70.2792L69.9587 104.522V105.846L68.6767 108.493L67.7152 109.155L66.1126 110.147L63.5485 111.14L61.946 112.464L60.0229 114.118L57.7794 115.773L57.4588 114.78L57.7794 110.147L57.4588 107.5L58.4204 106.508L58.7409 105.515L57.1383 104.853L55.2153 104.191L54.8948 102.868L55.5358 101.875H57.4588V100.882H58.7409L58.4204 99.8894L59.3819 99.5585H60.9845L61.6255 99.2276H63.228L64.1895 99.8894L65.7921 100.22L66.1126 99.5585L65.7921 98.5658L64.5101 97.2422L64.1895 95.9186L63.869 94.9258L64.5101 94.5949L65.1511 93.9331L66.1126 94.264L67.7152 94.5949V93.6022L68.0357 92.2786L68.9972 92.6095L69.9587 92.2786L71.8818 91.2859L73.8048 90.6241L75.0869 89.9623L75.7279 88.9696V87.6459L75.4074 86.9841L74.7664 86.3223L75.7279 83.3442V82.3515L75.0869 80.366L74.7664 79.7042L74.1254 78.7115V77.2374L74.4459 76.3952L75.0869 75.4025V72.0934L76.0484 71.4316V69.7771L75.4074 69.4462L74.1254 68.1225L73.1638 67.4607L73.4843 66.468L74.1254 66.1371L75.0869 64.8135H74.1254L72.2023 63.8208V62.8281L70.5997 61.8354H69.3177L68.6767 60.8426V58.5263H67.7152V57.8645L66.7536 56.5409L65.7921 55.8791L63.228 53.2318L62.9075 52.2391L61.6255 50.5846L61.305 49.9228L59.7024 49.261L59.3819 47.6064V46.6137L59.0614 45.9519H57.7794L56.4973 45.621L55.5358 44.6283L52.9717 43.3047L51.3692 42.6429V41.9811L52.0102 41.3193L52.3307 40.3265L52.9717 39.6647H55.8563L56.4973 39.3338L57.1383 38.3411L57.4588 37.6793V36.3557L57.1383 36.0248L56.4973 35.0321H55.8563L55.2153 34.3702H54.5743V33.7084H55.2153L55.5358 33.3775L55.2153 32.7157L53.9332 31.723L52.3307 31.0612H51.0486L50.0871 31.723L49.4461 32.7157L48.8051 31.723H47.2025L45.9205 31.0612Z" fill="#FFFF00"/>
</svg>
