<svg width="312" height="303" viewBox="0 0 312 303" fill="none" xmlns="http://www.w3.org/2000/svg">
<ellipse cx="156" cy="151.099" rx="156" ry="151.099" fill="#3100A9"/>
<ellipse cx="156.817" cy="151.099" rx="145.382" ry="141.298" fill="white"/>
<ellipse cx="156" cy="150.283" rx="129.864" ry="125.78" fill="#4094D8"/>
<ellipse cx="156.583" cy="150.49" rx="112.715" ry="109.06" fill="#3100A9"/>
<rect x="120.88" y="22.8691" width="71.8743" height="254.827" rx="2" fill="#19F6DB"/>
<rect x="39.2042" y="78.4084" width="235.225" height="45.7382" rx="4" fill="#19F6DB"/>
<path fill-rule="evenodd" clip-rule="evenodd" d="M79.9101 159.192C79.9101 158.088 79.0147 157.192 77.9101 157.192H26.3708C25.2663 157.192 24.3708 158.088 24.3708 159.192V168.596C24.3708 169.701 25.2663 170.596 26.3708 170.596H65.0199C66.1245 170.596 67.0199 171.492 67.0199 172.596V258.103C67.0199 259.208 67.9154 260.103 69.0199 260.103H77.9101C79.0147 260.103 79.9101 259.208 79.9101 258.103V159.192Z" fill="white"/>
<path fill-rule="evenodd" clip-rule="evenodd" d="M226.228 158.817C226.228 157.712 227.123 156.817 228.228 156.817L289.232 156.817C290.337 156.817 291.232 157.712 291.232 158.817V167.378C291.232 168.482 290.337 169.378 289.232 169.378H240.835C239.73 169.378 238.835 170.273 238.835 171.378L238.835 257.728C238.835 258.832 237.939 259.728 236.835 259.728H228.228C227.123 259.728 226.228 258.832 226.228 257.728L226.228 158.817Z" fill="white"/>
<mask id="mask0_1_39" style="mask-type:alpha" maskUnits="userSpaceOnUse" x="94" y="24" width="126" height="253">
<rect x="94.7437" y="24.5026" width="124.999" height="251.56" fill="#D9D9D9"/>
</mask>
<g mask="url(#mask0_1_39)">
<path d="M111.931 70.5965L109.587 67.4715L107.244 65.1278L108.806 61.2216V56.5341V55.7529L104.119 52.6279L100.994 49.503L97.8688 47.1593L97.0875 44.8155L98.65 42.4718L100.212 40.1281H101.775L104.9 40.9093L107.244 42.4718L111.15 44.8155L111.931 42.4718L113.494 40.1281H115.837H118.65L121.306 40.9093L124.431 43.253L125.994 42.4718L126.775 39.3468H129.118L131.462 40.1281L133.806 39.3468L137.712 37.7843L140.056 36.2218L140.837 32.3156L143.181 30.7531L145.525 29.1907L147.087 27.6282L148.65 29.1907L150.993 31.5344L154.118 33.8781L157.243 35.0812L160.368 35.4406L164.274 36.2218L165.837 35.0812H169.743L172.087 37.0031V40.9093L168.962 42.4718V46.378L169.743 50.2842L172.087 52.6279L175.212 54.9717L179.899 56.5341L182.243 57.3154H184.587H187.712L189.274 58.8779L188.493 61.2216L184.587 63.5653L181.462 64.3466V67.4715L179.899 69.034L175.993 69.8153L173.649 70.5965L172.087 72.159L168.962 75.284V80.7527L167.399 82.3152H164.625L162.712 86.2214H158.806L157.243 88.5651L155.681 92.4713L154.899 97.1588L153.337 101.846L155.681 106.534L159.587 111.221L164.274 115.127L166.618 117.471L167.399 121.377V124.502L168.962 126.846L172.868 129.971L175.993 133.096L179.899 136.221L183.024 140.127L186.93 142.471L190.055 146.377L194.743 148.721L197.087 152.627L200.993 155.752L203.337 159.658L205.68 162.002V165.908L208.024 169.814V173.721L209.586 176.846L210.368 181.533L211.149 183.877L212.711 187.002L211.93 190.908L212.711 195.595V197.158L215.055 198.72V201.845L213.493 203.408L211.93 204.189V205.752L212.711 208.095L211.93 212.783V215.908V219.033L210.368 222.158L208.805 222.939V225.283L205.68 226.064L204.118 227.626L201.774 228.408L200.212 229.97L195.524 231.533L191.618 233.876L182.243 240.126L177.556 241.689L173.649 240.908H171.306L170.524 244.032V247.157L168.962 250.282L167.399 253.407L165.056 254.97L161.149 257.314L154.899 259.657L150.993 262.782L146.306 266.689L140.837 270.595L140.056 268.251L140.837 257.314L140.056 251.064L142.4 248.72L143.181 246.376L139.275 244.814L134.587 243.251L133.806 240.126L135.368 237.783H140.056V235.439H143.181L142.4 233.095L144.743 232.314H148.65L150.212 231.533H154.118L156.462 233.095L160.368 233.876L161.149 232.314L160.368 229.97L157.243 226.845L156.462 223.72L155.681 221.376L157.243 220.595L158.806 219.033L161.149 219.814L165.056 220.595V218.251L165.837 215.126L168.181 215.908L170.524 215.126L173.649 213.564L175.212 212.783L179.899 211.22L183.024 209.658L184.587 207.314V204.189L183.805 202.627L182.243 201.064L183.024 198.72L183.805 196.377L184.587 194.033V191.689L183.805 189.345L183.024 187.002L182.243 185.439L180.681 183.096V180.752V179.615L181.462 177.627L183.024 175.283V170.596V167.471L185.368 165.908V163.564V162.002L183.805 161.221L180.681 158.096L178.337 156.533L179.118 154.19L180.681 153.408L183.024 150.283H180.681L175.993 147.94V145.596L172.087 143.252H168.962L167.399 140.908V138.565V135.44H165.056V133.877L162.712 130.752L160.368 129.19L157.243 126.065L154.118 122.94L153.337 120.596L150.212 116.69L149.431 115.127L145.525 113.565L144.743 109.659V107.315L143.962 105.752H140.837L137.712 104.971L135.368 102.627L132.243 101.065L129.118 99.5025L125.212 97.94V96.3775L126.775 94.8151L127.556 92.4713L129.118 90.9088H131.462H133.806H136.15L137.712 90.1276L139.275 87.7839L140.056 86.2214V84.6589V83.0964L139.275 82.3152L137.712 79.9714H136.15L134.587 78.409H133.025V76.8465H134.587L135.368 76.0652L134.587 74.5027L131.462 72.159L127.556 70.5965H124.431L122.087 72.159L120.525 74.5027L118.962 72.159H115.056L111.931 70.5965Z" fill="#FFFF00" stroke="#FFFF00"/>
</g>
</svg>
