<svg width="195" height="189" viewBox="0 0 195 189" fill="none" xmlns="http://www.w3.org/2000/svg">
<g filter="url(#filter0_d_1_39)">
<ellipse cx="102.208" cy="86.5" rx="86.2081" ry="83.5" fill="#3100A8"/>
</g>
<ellipse cx="102.659" cy="86.5" rx="80.3405" ry="78.0838" fill="white"/>
<ellipse cx="102.208" cy="86.0486" rx="71.7649" ry="69.5081" fill="#75B4E7"/>
<ellipse cx="102.53" cy="86.1633" rx="62.2883" ry="60.2681" fill="#3100A8"/>
<g filter="url(#filter1_d_1_39)">
<rect x="84.0591" y="16.2337" width="36.2982" height="140.822" rx="2" fill="#0CE0BA"/>
<rect x="37.6648" y="49.3546" width="129.989" height="25.2757" rx="4" fill="#0CE0BA"/>
</g>
<path fill-rule="evenodd" clip-rule="evenodd" d="M60.1597 91.8669C60.1597 90.7624 59.2642 89.8669 58.1597 89.8669H31.4678C30.3632 89.8669 29.4678 90.7624 29.4678 91.8669V95.2742C29.4678 96.3788 30.3632 97.2742 31.4678 97.2742H51.0362C52.1407 97.2742 53.0362 98.1696 53.0362 99.2742V144.737C53.0362 145.842 53.9316 146.737 55.0362 146.737H58.1597C59.2642 146.737 60.1597 145.842 60.1597 144.737V91.8669Z" fill="white"/>
<path fill-rule="evenodd" clip-rule="evenodd" d="M141.017 91.6595C141.017 90.5549 141.912 89.6595 143.017 89.6595L174.939 89.6595C176.044 89.6595 176.939 90.5549 176.939 91.6595V94.6008C176.939 95.7054 176.044 96.6008 174.939 96.6008L149.984 96.6008C148.879 96.6008 147.984 97.4962 147.984 98.6008V144.53C147.984 145.634 147.088 146.53 145.984 146.53H143.017C141.912 146.53 141.017 145.634 141.017 144.53V91.6595Z" fill="white"/>
<g filter="url(#filter2_d_1_39)">
<mask id="mask0_1_39" style="mask-type:alpha" maskUnits="userSpaceOnUse" x="68" y="18" width="70" height="140">
<rect x="68.3568" y="18.053" width="69.0764" height="139.016" fill="#D9D9D9"/>
</mask>
<g mask="url(#mask0_1_39)">
<path d="M77.855 43.5252L76.5599 41.7983L75.2647 40.5031L76.1281 38.3445V35.7541V35.3224L73.5378 33.5954L71.8109 31.8686L70.0839 30.5734L69.6522 29.2782L70.5157 27.983L71.3791 26.6878H72.2426L73.9695 27.1195L75.2647 27.983L77.4233 29.2782L77.855 27.983L78.7185 26.6878H80.0137H81.5681L83.0358 27.1195L84.7627 28.4147L85.6261 27.983L86.0579 26.2561H87.353L88.6482 26.6878L89.9434 26.2561L92.102 25.3926L93.3972 24.5292L93.829 22.3705L95.1241 21.5071L96.4193 20.6436L97.2828 19.7802L98.1462 20.6436L99.4414 21.9388L101.168 23.234L102.895 23.8989L104.622 24.0975L106.781 24.5292L107.644 23.8989H109.803L111.098 24.9609V27.1195L109.371 27.983V30.1416L109.803 32.3003L111.098 33.5954L112.825 34.8906L115.415 35.7541L116.71 36.1858H118.006H119.733L120.596 37.0493L120.164 38.3445L118.006 39.6396L116.279 40.0714V41.7983L115.415 42.6617L113.257 43.0935L111.961 43.5252L111.098 44.3886L109.371 46.1155V49.1376L108.508 50.0011H106.974L105.917 52.1597H103.759L102.895 53.4549L102.032 55.6136L101.6 58.2039L100.737 60.7943L102.032 63.3846L104.19 65.975L106.781 68.1336L108.076 69.4288L108.508 71.5875V73.3144L109.371 74.6096L111.53 76.3365L113.257 78.0634L115.415 79.7903L117.142 81.9489L119.301 83.2441L121.028 85.4027L123.618 86.6979L124.913 88.8566L127.072 90.5835L128.367 92.7421L129.662 94.0373V96.1959L130.958 98.3546V100.513L131.821 102.24L132.253 104.83L132.684 106.126L133.548 107.853L133.116 110.011L133.548 112.602V113.465L134.843 114.328V116.055L133.98 116.919L133.116 117.351V118.214L133.548 119.509L133.116 122.1V123.826V125.553L132.253 127.28L131.389 127.712V129.007L129.662 129.439L128.799 130.302L127.504 130.734L126.64 131.598L124.05 132.461L121.891 133.756L116.71 137.21L114.12 138.073L111.961 137.642H110.666L110.235 139.369V141.096L109.371 142.822L108.508 144.549L107.212 145.413L105.054 146.708L101.6 148.003L99.4414 149.73L96.851 151.889L93.829 154.047L93.3972 152.752L93.829 146.708L93.3972 143.254L94.6924 141.959L95.1241 140.664L92.9655 139.8L90.3751 138.937L89.9434 137.21L90.8069 135.915H93.3972V134.62H95.1241L94.6924 133.324L95.9876 132.893H98.1462L99.0097 132.461H101.168L102.463 133.324L104.622 133.756L105.054 132.893L104.622 131.598L102.895 129.871L102.463 128.144L102.032 126.849L102.895 126.417L103.759 125.553L105.054 125.985L107.212 126.417V125.122L107.644 123.395L108.939 123.826L110.235 123.395L111.961 122.531L112.825 122.1L115.415 121.236L117.142 120.373L118.006 119.077V117.351L117.574 116.487L116.71 115.624L117.142 114.328L117.574 113.033L118.006 111.738V110.443L117.574 109.148L117.142 107.853L116.71 106.989L115.847 105.694V104.399V103.771L116.279 102.672L117.142 101.377V98.7863V97.0594L118.437 96.1959V94.9007V94.0373L117.574 93.6056L115.847 91.8787L114.552 91.0152L114.984 89.72L115.847 89.2883L117.142 87.5614H115.847L113.257 86.2662V84.971L111.098 83.6758H109.371L108.508 82.3807V81.0855V79.3586H107.212V78.4951L105.917 76.7682L104.622 75.9047L102.895 74.1778L101.168 72.4509L100.737 71.1557L99.0097 68.9971L98.578 68.1336L96.4193 67.2702L95.9876 65.1116V63.8164L95.5559 62.9529H93.829L92.102 62.5212L90.8069 61.226L89.08 60.3626L87.353 59.4991L85.1944 58.6356V57.7722L86.0579 56.9087L86.4896 55.6136L87.353 54.7501H88.6482H89.9434H91.2386L92.102 54.3184L92.9655 53.0232L93.3972 52.1597V51.2963V50.4328L92.9655 50.0011L92.102 48.7059H91.2386L90.3751 47.8425H89.5117V46.979H90.3751L90.8069 46.5473L90.3751 45.6838L88.6482 44.3886L86.4896 43.5252H84.7627L83.4675 44.3886L82.604 45.6838L81.7406 44.3886H79.582L77.855 43.5252Z" fill="#FFFF00" stroke="#FFFF00"/>
</g>
</g>
<defs>
<filter id="filter0_d_1_39" x="0" y="0" width="194.416" height="189" filterUnits="userSpaceOnUse" color-interpolation-filters="sRGB">
<feFlood flood-opacity="0" result="BackgroundImageFix"/>
<feColorMatrix in="SourceAlpha" type="matrix" values="0 0 0 0 0 0 0 0 0 0 0 0 0 0 0 0 0 0 127 0" result="hardAlpha"/>
<feOffset dx="-5" dy="8"/>
<feGaussianBlur stdDeviation="5.5"/>
<feComposite in2="hardAlpha" operator="out"/>
<feColorMatrix type="matrix" values="0 0 0 0 0 0 0 0 0 0 0 0 0 0 0 0 0 0 0.25 0"/>
<feBlend mode="normal" in2="BackgroundImageFix" result="effect1_dropShadow_1_39"/>
<feBlend mode="normal" in="SourceGraphic" in2="effect1_dropShadow_1_39" result="shape"/>
</filter>
<filter id="filter1_d_1_39" x="33.6648" y="16.2337" width="137.989" height="148.822" filterUnits="userSpaceOnUse" color-interpolation-filters="sRGB">
<feFlood flood-opacity="0" result="BackgroundImageFix"/>
<feColorMatrix in="SourceAlpha" type="matrix" values="0 0 0 0 0 0 0 0 0 0 0 0 0 0 0 0 0 0 127 0" result="hardAlpha"/>
<feOffset dy="4"/>
<feGaussianBlur stdDeviation="2"/>
<feComposite in2="hardAlpha" operator="out"/>
<feColorMatrix type="matrix" values="0 0 0 0 0 0 0 0 0 0 0 0 0 0 0 0 0 0 0.25 0"/>
<feBlend mode="normal" in2="BackgroundImageFix" result="effect1_dropShadow_1_39"/>
<feBlend mode="normal" in="SourceGraphic" in2="effect1_dropShadow_1_39" result="shape"/>
</filter>
<filter id="filter2_d_1_39" x="63.1006" y="19.0731" width="78.2424" height="149.775" filterUnits="userSpaceOnUse" color-interpolation-filters="sRGB">
<feFlood flood-opacity="0" result="BackgroundImageFix"/>
<feColorMatrix in="SourceAlpha" type="matrix" values="0 0 0 0 0 0 0 0 0 0 0 0 0 0 0 0 0 0 127 0" result="hardAlpha"/>
<feOffset dy="8"/>
<feGaussianBlur stdDeviation="3"/>
<feComposite in2="hardAlpha" operator="out"/>
<feColorMatrix type="matrix" values="0 0 0 0 0 0 0 0 0 0 0 0 0 0 0 0 0 0 0.25 0"/>
<feBlend mode="normal" in2="BackgroundImageFix" result="effect1_dropShadow_1_39"/>
<feBlend mode="normal" in="SourceGraphic" in2="effect1_dropShadow_1_39" result="shape"/>
</filter>
</defs>
</svg>
