<svg width="312" height="312" viewBox="0 0 312 312" fill="none" xmlns="http://www.w3.org/2000/svg">
<circle cx="156" cy="156" r="156" fill="#3100A8"/>
<ellipse cx="156.817" cy="156" rx="145.382" ry="145.881" fill="white"/>
<ellipse cx="156" cy="155.157" rx="129.864" ry="129.859" fill="#75B4E7"/>
<ellipse cx="156.583" cy="155.371" rx="112.715" ry="112.597" fill="#3100A8"/>
<path d="M123.764 28.024C123.764 25.9604 125.385 24.2875 127.383 24.2875H185.829C187.828 24.2875 189.449 25.9604 189.449 28.024V283.643C189.449 285.706 187.828 287.379 185.829 287.379H127.383C125.385 287.379 123.764 285.706 123.764 283.643V28.024Z" fill="#0CE0BA"/>
<path d="M39.8105 93.6391C39.8105 89.5118 43.0512 86.166 47.0488 86.166H267.797C271.795 86.166 275.036 89.5118 275.036 93.6391V125.915C275.036 130.042 271.795 133.388 267.797 133.388H47.0488C43.0512 133.388 39.8105 130.042 39.8105 125.915V93.6391Z" fill="#0CE0BA"/>
<path fill-rule="evenodd" clip-rule="evenodd" d="M79.9104 164.29C79.9104 163.186 79.0149 162.29 77.9104 162.29H26.3711C25.2665 162.29 24.3711 163.186 24.3711 164.29V174.129C24.3711 175.234 25.2665 176.129 26.3711 176.129H65.0198C66.1244 176.129 67.0198 177.025 67.0198 178.129V266.539C67.0198 267.644 67.9152 268.539 69.0198 268.539H77.9104C79.0149 268.539 79.9104 267.644 79.9104 266.539V164.29Z" fill="white"/>
<path fill-rule="evenodd" clip-rule="evenodd" d="M226.228 163.903C226.228 162.798 227.123 161.903 228.228 161.903L289.232 161.903C290.337 161.903 291.232 162.798 291.232 163.903V172.871C291.232 173.976 290.337 174.871 289.232 174.871H240.835C239.73 174.871 238.835 175.766 238.835 176.871L238.835 266.151C238.835 267.256 237.939 268.151 236.835 268.151H228.228C227.123 268.151 226.228 267.256 226.228 266.151L226.228 163.903Z" fill="white"/>
<path d="M111.931 79.4483L109.587 76.2219L107.244 73.8022L108.806 69.7693V64.1233L104.119 60.8969L100.994 57.6706L97.8688 55.2509L97.0876 52.8311L100.213 47.9916H101.775L104.9 48.7982L107.244 50.4114L111.15 52.8311L111.931 50.4114L113.494 47.9916H118.65L121.306 48.7982L124.431 51.218L125.994 50.4114L126.775 47.1851H129.119L131.462 47.9916L133.806 47.1851L137.712 45.5719L140.056 43.9587L140.837 39.9258L145.525 36.6995L147.087 35.0864L150.993 39.1193L154.118 41.539L157.243 42.7811L160.368 43.1522L164.274 43.9587L165.837 42.7811H169.743L172.087 44.7653V48.7982L168.962 50.4114V54.4443L169.743 58.4772L172.087 60.8969L175.212 63.3167L182.243 65.7364H187.712L189.274 67.3496L188.493 69.7693L184.587 72.189L181.462 72.9956V76.2219L179.899 77.8351L175.993 78.6417L173.649 79.4483L168.962 84.2878V89.9338L167.399 91.547H164.625L162.712 95.5799H158.806L157.243 97.9996L155.681 102.033L154.9 106.872L153.337 111.712L155.681 116.551L159.587 121.39L164.274 125.423L166.618 127.843L167.399 131.876V135.102L168.962 137.522L172.868 140.748L175.993 143.975L179.899 147.201L183.024 151.234L186.93 153.654L190.055 157.687L194.743 160.106L197.087 164.139L200.993 167.366L203.337 171.398L205.68 173.818V177.851L208.024 181.884V185.917L209.587 189.143L210.368 193.983L211.149 196.402L212.712 199.629L211.93 203.662L212.712 208.501V210.114L215.055 211.727V214.954L213.493 216.567L211.93 217.374V218.987L212.712 221.406L211.93 226.246V232.699L210.368 235.925L208.805 236.731V239.151L205.68 239.958L204.118 241.571L201.774 242.378L200.212 243.991L195.524 245.604L191.618 248.024L182.243 254.476L177.556 256.089L173.649 255.283H171.306L170.524 258.509V261.735L167.399 268.188L165.056 269.801L161.149 272.221L154.9 274.641L150.993 277.867L146.306 281.9L140.837 285.933L140.056 283.513L140.837 272.221L140.056 265.768L142.4 263.349L143.181 260.929L139.275 259.316L134.587 257.703L133.806 254.476L135.368 252.057H140.056V249.637H143.181L142.4 247.217L144.743 246.41H148.65L150.212 245.604H154.118L156.462 247.217L160.368 248.024L161.149 246.41L160.368 243.991L157.243 240.764L156.462 237.538L155.681 235.118L157.243 234.312L158.806 232.699L161.149 233.505L165.056 234.312V231.892L165.837 228.666L168.181 229.472L170.524 228.666L175.212 226.246L179.899 224.633L183.024 223.02L184.587 220.6V217.374L183.806 215.76L182.243 214.147L184.587 206.888V204.468L183.024 199.629L182.243 198.016L180.681 195.596V192.003L181.462 189.95L183.024 187.53V179.464L185.368 177.851V173.818L183.806 173.012L180.681 169.785L178.337 168.172L179.118 165.752L180.681 164.946L183.024 161.719H180.681L175.993 159.3V156.88L172.087 154.46H168.962L167.399 152.041V146.394H165.056V144.781L162.712 141.555L160.368 139.942L154.118 133.489L153.337 131.069L150.212 127.037L149.431 125.423L145.525 123.81L144.743 119.777V117.358L143.962 115.744H140.837L137.712 114.938L135.368 112.518L129.119 109.292L125.212 107.679V106.065L126.775 104.452L127.556 102.033L129.119 100.419H136.15L137.712 99.6128L139.275 97.1931L140.056 95.5799V92.3536L139.275 91.547L137.712 89.1272H136.15L134.587 87.5141H133.025V85.9009H134.587L135.368 85.0943L134.587 83.4812L131.462 81.0614L127.556 79.4483H124.431L122.087 81.0614L120.525 83.4812L118.962 81.0614H115.056L111.931 79.4483Z" fill="#ABABA5" fill-opacity="0.78"/>
<path d="M111.931 75.7117L109.587 72.4853L107.244 70.0656L108.806 66.0327V60.3867L104.119 57.1603L100.994 53.934L97.8688 51.5143L97.0876 49.0945L100.213 44.255H101.775L104.9 45.0616L107.244 46.6748L111.15 49.0945L111.931 46.6748L113.494 44.255H118.65L121.306 45.0616L124.431 47.4814L125.994 46.6748L126.775 43.4485H129.119L131.462 44.255L133.806 43.4485L137.712 41.8353L140.056 40.2221L140.837 36.1892L145.525 32.9629L147.087 31.3498L150.993 35.3827L154.118 37.8024L157.243 39.0445L160.368 39.4156L164.274 40.2221L165.837 39.0445H169.743L172.087 41.0287V45.0616L168.962 46.6748V50.7077L169.743 54.7406L172.087 57.1603L175.212 59.5801L182.243 61.9998H187.712L189.274 63.613L188.493 66.0327L184.587 68.4524L181.462 69.259V72.4853L179.899 74.0985L175.993 74.9051L173.649 75.7117L168.962 80.5512V86.1972L167.399 87.8104H164.625L162.712 91.8433H158.806L157.243 94.263L155.681 98.2959L154.9 103.135L153.337 107.975L155.681 112.814L159.587 117.654L164.274 121.687L166.618 124.107L167.399 128.139V131.366L168.962 133.785L172.868 137.012L175.993 140.238L179.899 143.464L183.024 147.497L186.93 149.917L190.055 153.95L194.743 156.37L197.087 160.403L200.993 163.629L203.337 167.662L205.68 170.082V174.115L208.024 178.147V182.18L209.587 185.407L210.368 190.246L211.149 192.666L212.712 195.892L211.93 199.925L212.712 204.765V206.378L215.055 207.991V211.217L213.493 212.83L211.93 213.637V215.25L212.712 217.67L211.93 222.509V228.962L210.368 232.188L208.805 232.995V235.415L205.68 236.221L204.118 237.834L201.774 238.641L200.212 240.254L195.524 241.867L191.618 244.287L182.243 250.74L177.556 252.353L173.649 251.546H171.306L170.524 254.773V257.999L167.399 264.452L165.056 266.065L161.149 268.484L154.9 270.904L150.993 274.131L146.306 278.163L140.837 282.196L140.056 279.777L140.837 268.484L140.056 262.032L142.4 259.612L143.181 257.192L139.275 255.579L134.587 253.966L133.806 250.74L135.368 248.32H140.056V245.9H143.181L142.4 243.48L144.743 242.674H148.65L150.212 241.867H154.118L156.462 243.48L160.368 244.287L161.149 242.674L160.368 240.254L157.243 237.028L156.462 233.801L155.681 231.382L157.243 230.575L158.806 228.962L161.149 229.769L165.056 230.575V228.155L165.837 224.929L168.181 225.736L170.524 224.929L175.212 222.509L179.899 220.896L183.024 219.283L184.587 216.863V213.637L183.806 212.024L182.243 210.411L184.587 203.151V200.732L183.024 195.892L182.243 194.279L180.681 191.859V188.266L181.462 186.213L183.024 183.793V175.728L185.368 174.115V170.082L183.806 169.275L180.681 166.049L178.337 164.436L179.118 162.016L180.681 161.209L183.024 157.983H180.681L175.993 155.563V153.143L172.087 150.724H168.962L167.399 148.304V142.658H165.056V141.045L162.712 137.818L160.368 136.205L154.118 129.753L153.337 127.333L150.212 123.3L149.431 121.687L145.525 120.074L144.743 116.041V113.621L143.962 112.008H140.837L137.712 111.201L135.368 108.781L129.119 105.555L125.212 103.942V102.329L126.775 100.716L127.556 98.2959L129.119 96.6828H136.15L137.712 95.8762L139.275 93.4564L140.056 91.8433V88.617L139.275 87.8104L137.712 85.3906H136.15L134.587 83.7775H133.025V82.1643H134.587L135.368 81.3577L134.587 79.7446L131.462 77.3248L127.556 75.7117H124.431L122.087 77.3248L120.525 79.7446L118.962 77.3248H115.056L111.931 75.7117Z" fill="#FFFF00"/>
</svg>
