<svg width="456" height="442" viewBox="0 0 456 442" fill="none" xmlns="http://www.w3.org/2000/svg">
<ellipse cx="228" cy="220.838" rx="228" ry="220.838" fill="#3100A9"/>
<ellipse cx="229.193" cy="220.838" rx="212.482" ry="206.513" fill="white"/>
<ellipse cx="228" cy="219.644" rx="189.801" ry="183.832" fill="#4094D8"/>
<ellipse cx="228.852" cy="219.947" rx="164.738" ry="159.395" fill="#3100A9"/>
<rect x="176.671" y="33.4241" width="105.047" height="372.44" rx="2" fill="#19F6DB"/>
<rect x="57.2985" y="114.597" width="343.791" height="66.8482" rx="4" fill="#19F6DB"/>
<path fill-rule="evenodd" clip-rule="evenodd" d="M116.792 231.742C116.792 230.638 115.896 229.742 114.792 229.742H37.6189C36.5143 229.742 35.6189 230.638 35.6189 231.742V247.333C35.6189 248.437 36.5143 249.333 37.6189 249.333H95.9521C97.0567 249.333 97.9521 250.228 97.9521 251.333V378.151C97.9521 379.255 98.8475 380.151 99.9521 380.151H114.792C115.896 380.151 116.792 379.255 116.792 378.151V231.742Z" fill="white"/>
<path fill-rule="evenodd" clip-rule="evenodd" d="M330.64 231.194C330.64 230.089 331.536 229.194 332.64 229.194L423.647 229.194C424.751 229.194 425.647 230.089 425.647 231.194V245.552C425.647 246.656 424.751 247.552 423.647 247.552L351.066 247.552C349.962 247.552 349.066 248.447 349.066 249.552L349.066 377.602C349.066 378.707 348.171 379.602 347.066 379.602H332.64C331.536 379.602 330.64 378.707 330.64 377.602L330.64 231.194Z" fill="white"/>
<mask id="mask0_1_39" style="mask-type:alpha" maskUnits="userSpaceOnUse" x="138" y="35" width="184" height="369">
<rect x="138.472" y="35.8115" width="182.691" height="367.665" fill="#D9D9D9"/>
</mask>
<g mask="url(#mask0_1_39)">
<path d="M163.592 103.18L160.166 98.6123L156.741 95.1868L159.024 89.4778V82.6268V81.485L152.174 76.9177L147.606 72.3505L143.039 68.9251L141.897 65.4996L144.181 62.0741L146.464 58.6487H148.748L153.315 59.7905L156.741 62.0741L162.45 65.4996L163.592 62.0741L165.875 58.6487H169.301H173.412L177.294 59.7905L181.861 63.216L184.144 62.0741L185.286 57.5069H188.712L192.137 58.6487L195.563 57.5069L201.272 55.2233L204.697 52.9396L205.839 47.2305L209.264 44.9469L212.69 42.6633L214.973 40.3796L217.257 42.6633L220.683 46.0887L225.25 49.5142L229.817 51.2725L234.384 51.7978L240.093 52.9396L242.377 51.2725H248.086L251.512 54.0814V59.7905L246.944 62.0741V67.7832L248.086 73.4923L251.512 76.9177L256.079 80.3432L262.93 82.6268L266.355 83.7686H269.781H274.348L276.632 86.0523L275.49 89.4777L269.781 92.9032L265.213 94.045V98.6123L262.93 100.896L257.221 102.038L253.795 103.18L251.512 105.463L246.944 110.03V118.023L244.661 120.307H240.605L237.81 126.016H232.101L229.817 129.441L227.533 135.15L226.392 142.001L224.108 148.852L227.533 155.703L233.243 162.554L240.093 168.263L243.519 171.689L244.661 177.398V181.965L246.944 185.39L252.653 189.958L257.221 194.525L262.93 199.092L267.497 204.801L273.206 208.227L277.773 213.936L284.624 217.361L288.05 223.07L293.759 227.638L297.184 233.347L300.61 236.772V242.481L304.035 248.19V253.899L306.319 258.467L307.461 265.318L308.602 268.743L310.886 273.31L309.744 279.019L310.886 285.87V288.154L314.312 290.437V295.005L312.028 297.288L309.744 298.43V300.714L310.886 304.139L309.744 310.99V315.557V320.125L307.461 324.692L305.177 325.834V329.259L300.61 330.401L298.326 332.685L294.901 333.827L292.617 336.11L285.766 338.394L280.057 341.819L266.355 350.954L259.504 353.237L253.795 352.096H250.37L249.228 356.663V361.23L246.944 365.797L244.661 370.365L241.235 372.648L235.526 376.074L226.392 379.499L220.683 384.066L213.832 389.776L205.839 395.485L204.697 392.059L205.839 376.074L204.697 366.939L208.123 363.514L209.264 360.088L203.555 357.805L196.704 355.521L195.563 350.954L197.846 347.528H204.697V344.103H209.264L208.123 340.677L211.548 339.536H217.257L219.541 338.394H225.25L228.675 340.677L234.384 341.819L235.526 339.536L234.384 336.11L229.817 331.543L228.675 326.976L227.533 323.55L229.817 322.408L232.101 320.125L235.526 321.267L241.235 322.408V318.983L242.377 314.416L245.803 315.557L249.228 314.416L253.795 312.132L256.079 310.99L262.93 308.707L267.497 306.423L269.781 302.997V298.43L268.639 296.147L266.355 293.863L267.497 290.437L268.639 287.012L269.781 283.587V280.161L268.639 276.736L267.497 273.31L266.355 271.027L264.072 267.601V264.176V262.514L265.213 259.608L267.497 256.183V249.332V244.765L270.922 242.481V239.056V236.772L268.639 235.63L264.072 231.063L260.646 228.779L261.788 225.354L264.072 224.212L267.497 219.645H264.072L257.221 216.219V212.794L251.512 209.368H246.944L244.661 205.943V202.518V197.95H241.235V195.667L237.81 191.099L234.384 188.816L229.817 184.249L225.25 179.681L224.108 176.256L219.541 170.547L218.399 168.263L212.69 165.979L211.548 160.27V156.845L210.406 154.561H205.839L201.272 153.419L197.846 149.994L193.279 147.71L188.712 145.427L183.003 143.143V140.859L185.286 138.576L186.428 135.15L188.712 132.867H192.137H195.563H198.988L201.272 131.725L203.555 128.299L204.697 126.016V123.732V121.449L203.555 120.307L201.272 116.881H198.988L196.704 114.598H194.421V112.314H196.704L197.846 111.172L196.704 108.889L192.137 105.463L186.428 103.18H181.861L178.435 105.463L176.152 108.889L173.868 105.463H168.159L163.592 103.18Z" fill="#FFFF00" stroke="#FFFF00"/>
</g>
</svg>
