<svg width="128" height="124" viewBox="0 0 128 124" fill="none" xmlns="http://www.w3.org/2000/svg">
<ellipse cx="64" cy="61.9895" rx="64" ry="61.9895" fill="#240C80"/>
<ellipse cx="64.335" cy="61.9895" rx="59.644" ry="57.9686" fill="white"/>
<ellipse cx="64" cy="61.6545" rx="53.2775" ry="51.6021" fill="#2A76B3"/>
<ellipse cx="64" cy="61.9895" rx="47.2461" ry="45.9058" fill="#2C0390"/>
<rect x="49.5917" y="9.3822" width="29.4869" height="104.545" rx="2" fill="#19F6DB"/>
<rect x="16.0838" y="32.1675" width="96.5026" height="18.7644" rx="4" fill="#19F6DB"/>
<path fill-rule="evenodd" clip-rule="evenodd" d="M33.5079 64.3351H10.7225V69.6963H28.1466V106.555L10.7225 106.555H33.5079V64.3351Z" fill="white"/>
<path fill-rule="evenodd" clip-rule="evenodd" d="M91.8115 64.3351H117.277V69.6963H97.8035L97.8035 106.555L117.277 106.555H91.8115L91.8115 64.3351Z" fill="white"/>
<mask id="mask0_1_39" style="mask-type:alpha" maskUnits="userSpaceOnUse" x="38" y="10" width="53" height="104">
<rect x="38.8691" y="10.0524" width="51.2816" height="103.204" fill="#D9D9D9"/>
</mask>
<g mask="url(#mask0_1_39)">
<path d="M45.9205 28.9627L44.959 27.6806L43.9974 26.7191L44.6385 25.1166V23.1935V22.873L42.7154 21.5909L41.4334 20.3089L40.1513 19.3474L39.8308 18.3858L40.4718 17.4243L41.1129 16.4628H41.7539L43.0359 16.7833L43.9974 17.4243L45.6 18.3858L45.9205 17.4243L46.5615 16.4628H47.523H48.677L49.7666 16.7833L51.0487 17.7448L51.6897 17.4243L52.0102 16.1423H52.9717L53.9332 16.4628L54.8948 16.1423L56.4973 15.5013L57.4589 14.8602L57.7794 13.2577L58.7409 12.6167L59.7024 11.9756L60.3434 11.3346L60.9845 11.9756L61.946 12.9372L63.228 13.8987L64.5101 14.3923L65.7921 14.5397L67.3947 14.8602L68.0357 14.3923H69.6382L70.5998 15.1807V16.7833L69.3177 17.4243V19.0269L69.6382 20.6294L70.5998 21.5909L71.8818 22.5525L73.8049 23.1935L74.7664 23.514H75.7279H77.01L77.651 24.155L77.3305 25.1165L75.7279 26.0781L74.4459 26.3986V27.6806L73.8049 28.3216L72.2023 28.6422L71.2408 28.9627L70.5998 29.6037L69.3177 30.8857V33.1293L68.6767 33.7703H67.5384L66.7536 35.3729H65.1511L64.5101 36.3344L63.8691 37.9369L63.5485 39.86L62.9075 41.7831L63.8691 43.7061L65.4716 45.6292L67.3947 47.2317L68.3562 48.1933L68.6767 49.7958V51.0779L69.3177 52.0394L70.9203 53.3214L72.2023 54.6035L73.8049 55.8855L75.0869 57.488L76.6894 58.4496L77.9715 60.0521L79.8945 61.0137L80.8561 62.6162L82.4586 63.8982L83.4202 65.5008L84.3817 66.4623V68.0649L85.3432 69.6674V71.27L85.9842 72.552L86.3047 74.4751L86.6253 75.4366L87.2663 76.7186L86.9458 78.3212L87.2663 80.2443V80.8853L88.2278 81.5263V82.8083L87.5868 83.4493L86.9458 83.7699V84.4109L87.2663 85.3724L86.9458 87.2955V88.5775V89.8596L86.3047 91.1416L85.6637 91.4621V92.4236L84.3817 92.7441L83.7407 93.3852L82.7791 93.7057L82.1381 94.3467L80.2151 94.9877L78.6125 95.9492L74.7664 98.5133L72.8433 99.1543L71.2408 98.8338H70.2792L69.9587 100.116V101.398L69.3177 102.68L68.6767 103.962L67.7152 104.603L66.1126 105.565L63.5485 106.526L61.946 107.808L60.0229 109.411L57.7794 111.013L57.4589 110.052L57.7794 105.565L57.4589 103L58.4204 102.039L58.7409 101.077L57.1383 100.436L55.2153 99.7954L54.8948 98.5133L55.5358 97.5518H57.4589V96.5903H58.7409L58.4204 95.6287L59.3819 95.3082H60.9845L61.6255 94.9877H63.228L64.1896 95.6287L65.7921 95.9492L66.1126 95.3082L65.7921 94.3467L64.5101 93.0647L64.1896 91.7826L63.8691 90.8211L64.5101 90.5006L65.1511 89.8596L66.1126 90.1801L67.7152 90.5006V89.539L68.0357 88.257L68.9972 88.5775L69.9587 88.257L71.2408 87.616L71.8818 87.2955L73.8049 86.6544L75.0869 86.0134L75.7279 85.0519V83.7699L75.4074 83.1288L74.7664 82.4878L75.0869 81.5263L75.4074 80.5648L75.7279 79.6032V78.6417L75.4074 77.6802L75.0869 76.7186L74.7664 76.0776L74.1254 75.1161V74.1546V73.6883L74.4459 72.8725L75.0869 71.911V69.9879V68.7059L76.0484 68.0649V67.1033V66.4623L75.4074 66.1418L74.1254 64.8598L73.1638 64.2188L73.4843 63.2572L74.1254 62.9367L75.0869 61.6547H74.1254L72.2023 60.6931V59.7316L70.5998 58.7701H69.3177L68.6767 57.8086V56.847V55.565H67.7152V54.924L66.7536 53.6419L65.7921 53.0009L64.5101 51.7189L63.228 50.4368L62.9075 49.4753L61.6255 47.8727L61.305 47.2317L59.7024 46.5907L59.3819 44.9882V44.0266L59.0614 43.3856H57.7794L56.4973 43.0651L55.5358 42.1036L54.2538 41.4626L52.9717 40.8215L51.3692 40.1805V39.5395L52.0102 38.8985L52.3307 37.9369L52.9717 37.2959H53.9332H54.8948H55.8563L56.4973 36.9754L57.1383 36.0139L57.4589 35.3729V34.7318V34.0908L57.1383 33.7703L56.4973 32.8088H55.8563L55.2153 32.1678H54.5743V31.5267H55.2153L55.5358 31.2062L55.2153 30.5652L53.9332 29.6037L52.3307 28.9627H51.0487L50.0871 29.6037L49.4461 30.5652L48.8051 29.6037H47.2025L45.9205 28.9627Z" fill="#FFFF00" stroke="#FFFF00"/>
</g>
</svg>
